<?xml version="1.0" encoding="UTF-8" standalone="no"?>
<!-- Created with Inkscape (http://www.inkscape.org/) -->

<svg
   width="521"
   height="256"
   viewBox="0 0 137.84791 67.733331"
   version="1.1"
   id="svg5"
   inkscape:version="1.1.1 (3bf5ae0d25, 2021-09-20, custom)"
   sodipodi:docname="logo.svg"
   xmlns:inkscape="http://www.inkscape.org/namespaces/inkscape"
   xmlns:sodipodi="http://sodipodi.sourceforge.net/DTD/sodipodi-0.dtd"
   xmlns="http://www.w3.org/2000/svg"
   xmlns:svg="http://www.w3.org/2000/svg">
  <sodipodi:namedview
     id="namedview7"
     pagecolor="#ffffff"
     bordercolor="#666666"
     borderopacity="1.0"
     inkscape:pageshadow="2"
     inkscape:pageopacity="0.0"
     inkscape:pagecheckerboard="0"
     inkscape:document-units="px"
     showgrid="false"
     units="px"
     width="521px"
     inkscape:zoom="0.77058782"
     inkscape:cx="208.28255"
     inkscape:cy="182.32834"
     inkscape:window-width="1912"
     inkscape:window-height="1042"
     inkscape:window-x="0"
     inkscape:window-y="0"
     inkscape:window-maximized="1"
     inkscape:current-layer="text2894" />
  <defs
     id="defs2" />
  <g
     inkscape:label="Layer 1"
     inkscape:groupmode="layer"
     id="layer1">
    <g
       aria-label="NOST"
       id="text2894"
       style="font-size:50.8px;line-height:1.25;letter-spacing:0px;stroke-width:0.264583">
      <path
         d="M 31.121607,15.3759 V 52.321354 H 28.920754 L 5.3608116,19.470928 H 5.1443343 V 52.321354 H 2.8893628 V 15.3759 h 2.218892 L 28.668198,48.262405 h 0.216477 V 15.3759 Z"
         style="font-weight:200;font-family:Inter;-inkscape-font-specification:'Inter Ultra-Light'"
         id="path948" />
      <path
         d="m 71.187922,33.848627 q 0,5.700568 -1.984375,9.975994 -1.984375,4.275426 -5.52017,6.638636 -3.517756,2.363211 -8.117898,2.363211 -4.618182,0 -8.153977,-2.363211 -3.517756,-2.38125 -5.502131,-6.638636 -1.984375,-4.275426 -1.984375,-9.975994 0,-5.718608 1.984375,-9.975994 1.984375,-4.275426 5.502131,-6.638637 3.535795,-2.36321 8.153977,-2.36321 4.600142,0 8.117898,2.36321 3.535795,2.363211 5.52017,6.638637 1.984375,4.257386 1.984375,9.975994 z m -2.200852,0 q 0,-5.141335 -1.731818,-8.911648 -1.731819,-3.770312 -4.7625,-5.826846 -3.012642,-2.074574 -6.927273,-2.074574 -3.914631,0 -6.945312,2.056534 -3.030682,2.056534 -4.7625,5.826847 -1.713779,3.770312 -1.713779,8.929687 0,5.105256 1.713779,8.893608 1.713778,3.770312 4.72642,5.844886 3.030682,2.074574 6.981392,2.074574 3.914631,0 6.945312,-2.056534 3.030682,-2.074574 4.744461,-5.844886 1.731818,-3.788353 1.731818,-8.911648 z"
         style="font-weight:200;font-family:Inter;-inkscape-font-specification:'Inter Ultra-Light'"
         id="path950" />
      <path
         d="m 99.907246,24.612263 q -0.288636,-3.445596 -2.814204,-5.574289 -2.507529,-2.128693 -6.494319,-2.128693 -2.687926,0 -4.780539,0.992187 -2.092614,0.974148 -3.283239,2.705966 -1.190625,1.713778 -1.190625,3.93267 0,2.868324 2.110654,4.600142 2.128693,1.731818 5.466051,2.742046 l 4.040909,1.190625 q 2.760085,0.829829 4.942897,2.056534 2.200849,1.226704 3.463639,3.084801 1.26278,1.840057 1.26278,4.509943 0,2.922443 -1.51534,5.231534 -1.51534,2.309091 -4.275425,3.644034 -2.760085,1.316903 -6.512358,1.316903 -5.357813,0 -8.586932,-2.651846 -3.229119,-2.651847 -3.535795,-6.891193 h 2.309091 q 0.270596,3.427557 2.976562,5.429971 2.705966,2.002415 6.837074,2.002415 2.976562,0 5.249574,-1.010227 2.273011,-1.028267 3.553835,-2.850284 1.280824,-1.822017 1.280824,-4.239347 0,-2.904403 -2.056534,-4.618182 -2.056534,-1.713778 -6.025284,-2.922443 l -4.311506,-1.298863 q -4.347585,-1.334943 -6.620597,-3.607955 -2.273011,-2.273011 -2.273011,-5.646449 0,-2.850284 1.515341,-5.051136 1.515341,-2.218892 4.113068,-3.481676 2.615767,-1.262784 5.899006,-1.262784 3.301278,0 5.826846,1.280824 2.525568,1.262784 4.004831,3.481676 1.4973,2.200852 1.64162,5.033096 z"
         style="font-weight:200;font-family:Inter;-inkscape-font-specification:'Inter Ultra-Light'"
         id="path952" />
      <path
         d="M 109.07147,17.468514 V 15.3759 h 25.88708 v 2.092614 H 123.1425 v 34.85284 h -2.25497 v -34.85284 z"
         style="font-weight:200;font-family:Inter;-inkscape-font-specification:'Inter Ultra-Light'"
         id="path954" />
    </g>
  </g>
</svg>
